<?xml version="1.0" standalone="no"?>
<!DOCTYPE svg PUBLIC "-//W3C//DTD SVG 20010904//EN"
 "http://www.w3.org/TR/2001/REC-SVG-20010904/DTD/svg10.dtd">
<svg version="1.0" xmlns="http://www.w3.org/2000/svg"
 width="700.000000pt" height="700.000000pt" viewBox="0 0 700.000000 700.000000"
 preserveAspectRatio="xMidYMid meet">
<metadata>
Created by potrace 1.14, written by Peter Selinger 2001-2017
</metadata>
<g transform="translate(0.000000,700.000000) scale(0.100000,-0.100000)"
fill="#000000" stroke="none">
<path d="M1666 6610 c-545 -65 -1002 -440 -1171 -961 -73 -227 -69 -101 -73
-1999 -3 -1729 0 -1910 34 -2070 55 -260 188 -504 379 -696 194 -195 411 -316
688 -382 l112 -27 1865 0 1865 0 112 27 c277 66 494 187 688 382 193 194 326
440 380 701 33 162 36 352 33 2070 -4 1892 0 1767 -73 1994 -70 215 -182 398
-345 561 -192 192 -424 317 -708 382 l-97 22 -1810 2 c-995 1 -1841 -2 -1879
-6z m942 -1709 c179 -38 335 -104 420 -176 44 -39 82 -106 82 -148 0 -57 -70
-167 -106 -167 -7 0 -44 20 -84 44 -302 187 -758 229 -1011 95 -73 -39 -142
-112 -177 -187 -24 -50 -27 -69 -27 -162 0 -95 3 -111 28 -162 17 -34 50 -77
83 -107 92 -84 160 -112 604 -246 460 -139 697 -324 771 -602 30 -110 30 -316
1 -426 -61 -226 -227 -410 -456 -503 -144 -58 -301 -84 -514 -84 -369 1 -670
90 -828 245 -76 74 -94 122 -75 193 13 50 65 112 114 138 27 14 29 13 112 -51
206 -161 446 -234 734 -222 206 8 328 52 433 158 138 137 177 363 92 536 -71
147 -214 232 -569 338 -416 125 -502 159 -631 250 -185 132 -265 294 -265 538
0 208 59 356 191 487 121 120 286 199 491 235 123 21 461 14 587 -14z m3059
-63 c25 -48 24 -163 -2 -205 -37 -62 -42 -63 -474 -63 l-391 0 0 -1219 0
-1218 -47 -14 c-27 -7 -82 -13 -124 -13 -84 0 -126 18 -163 67 l-21 28 -3
1185 -2 1184 -426 0 -425 0 -15 35 c-37 90 -25 195 28 240 l30 25 1009 0 1008
0 18 -32z"/>
</g>
</svg>
