<?xml version="1.0"?>
<svg xmlns="http://www.w3.org/2000/svg" xmlns:xlink="http://www.w3.org/1999/xlink" xmlns:svgjs="http://svgjs.com/svgjs" version="1.1" width="512" height="512" x="0" y="0" viewBox="0 0 427.008 427.008" style="enable-background:new 0 0 512 512" xml:space="preserve" class=""><g>
<g xmlns="http://www.w3.org/2000/svg">
	<g>
		<path d="M212.992,179.392c-26.112,0-47.104,20.992-47.104,47.104c0,26.112,20.992,47.104,47.104,47.104    s47.104-20.992,47.104-47.104S239.104,179.392,212.992,179.392z" fill="#ee555596" data-original="#000000" style="" class=""/>
	</g>
</g>
<g xmlns="http://www.w3.org/2000/svg">
	<g>
		<path d="M318.976,42.176c-66.048-37.376-146.944-37.376-212.48,0c-3.584,2.048-6.144,6.144-6.144,10.752    c0,2.048,0.512,4.096,1.536,5.632l59.392,102.4c2.048,3.584,6.144,5.632,10.24,5.632c2.048,0,4.096-0.512,5.632-1.536    c22.016-12.288,49.152-12.288,70.656,0c1.536,1.024,3.584,1.536,5.632,1.536c4.096,0,8.192-2.048,10.24-5.632l59.392-102.4    C326.144,52.928,324.608,45.76,318.976,42.176z" fill="#ee555596" data-original="#000000" style="" class=""/>
	</g>
</g>
<g xmlns="http://www.w3.org/2000/svg">
	<g>
		<path d="M414.208,214.72H295.936c-6.656,0-11.776,5.12-11.776,11.776c0,25.088-13.824,48.64-35.328,61.44    c-5.632,3.072-7.68,10.752-4.096,16.384l59.392,102.4c3.584,5.632,10.752,7.68,16.384,4.096    c65.536-37.888,106.496-108.544,106.496-184.32C425.984,219.84,420.864,214.72,414.208,214.72z" fill="#ee555596" data-original="#000000" style="" class=""/>
	</g>
</g>
<g xmlns="http://www.w3.org/2000/svg">
	<g>
		<path d="M177.664,287.936c-22.016-12.8-35.84-36.352-35.84-61.44c0-6.656-5.12-11.776-11.776-11.776H11.776    C5.12,214.72,0,219.84,0,226.496c0,75.776,40.448,145.92,105.984,184.32c2.048,1.024,4.096,2.048,6.144,2.048    c4.096,0,8.192-2.048,10.24-5.632l59.392-102.4C185.344,298.688,183.296,291.52,177.664,287.936z" fill="#ee555596" data-original="#000000" style="" class=""/>
	</g>
</g>
<g xmlns="http://www.w3.org/2000/svg">
</g>
<g xmlns="http://www.w3.org/2000/svg">
</g>
<g xmlns="http://www.w3.org/2000/svg">
</g>
<g xmlns="http://www.w3.org/2000/svg">
</g>
<g xmlns="http://www.w3.org/2000/svg">
</g>
<g xmlns="http://www.w3.org/2000/svg">
</g>
<g xmlns="http://www.w3.org/2000/svg">
</g>
<g xmlns="http://www.w3.org/2000/svg">
</g>
<g xmlns="http://www.w3.org/2000/svg">
</g>
<g xmlns="http://www.w3.org/2000/svg">
</g>
<g xmlns="http://www.w3.org/2000/svg">
</g>
<g xmlns="http://www.w3.org/2000/svg">
</g>
<g xmlns="http://www.w3.org/2000/svg">
</g>
<g xmlns="http://www.w3.org/2000/svg">
</g>
<g xmlns="http://www.w3.org/2000/svg">
</g>
</g></svg>
