<?xml version="1.0" encoding="UTF-8" standalone="no"?>
<!DOCTYPE svg PUBLIC "-//W3C//DTD SVG 1.1//EN" "http://www.w3.org/Graphics/SVG/1.1/DTD/svg11.dtd">
<svg version="1.1" xmlns="http://www.w3.org/2000/svg" xmlns:xlink="http://www.w3.org/1999/xlink" preserveAspectRatio="xMidYMid meet" viewBox="-0.9999999999999256 22.040218892923463 644.3803150787371 602.87198042334" width="640.38" height="598.87"><defs><path d="M307.16 150.5C306.47 150.56 303.23 150.9 299.91 151.25C270.73 154.15 241.12 164.89 215.98 181.64C195.86 195.02 177.75 213.11 164.37 233.23C155.33 246.79 147.36 263.1 142.35 278.33C128.43 320.51 129.83 365.82 146.36 406.97C147.51 409.82 149.52 414.36 150.85 417.12C152.17 419.89 153.26 422.22 153.26 422.34C153.26 422.46 146.93 426.19 139.16 430.68C131.42 435.15 124.89 438.95 124.63 439.14C124.25 439.4 124.98 440.81 129.87 449.31C133.01 454.75 135.65 459.17 135.74 459.17C135.86 459.17 142.44 455.44 150.38 450.83C158.32 446.22 164.92 442.49 165.06 442.49C165.18 442.49 166.47 444.15 167.91 446.2C180.58 463.99 197.55 480.41 215.98 492.67C229.53 501.71 245.85 509.67 261.06 514.68C299.48 527.37 340.3 527.37 378.72 514.68C393.93 509.67 410.25 501.71 423.8 492.67C442.45 480.27 459.09 464.12 472.23 445.65C473.94 443.27 475.38 441.33 475.46 441.33C475.52 441.33 481.97 445.01 489.76 449.5C497.53 454.02 504.13 457.79 504.39 457.87C504.73 458.03 506.08 455.89 510.52 448.2C515.64 439.38 516.16 438.31 515.73 438C515.47 437.79 508.91 433.99 501.16 429.54C493.42 425.05 487.08 421.3 487.08 421.18C487.08 421.08 488.03 419.01 489.23 416.55C505.16 383.28 510.65 343.22 504.33 306.08C499.93 280.14 490 255.11 475.41 233.23C463.86 215.88 449.01 200.23 432.12 187.54C422.75 180.51 414.34 175.33 403.34 169.84C383 159.67 361.59 153.41 339.87 151.25C336.55 150.9 333.31 150.56 332.63 150.5C332.56 150.49 332.15 150.44 331.41 150.35C331.41 149.36 331.41 144.42 331.41 135.53L331.41 120.74L319.89 120.74L308.37 120.74L308.37 135.53L308.37 150.35C307.62 150.44 307.22 150.49 307.16 150.5ZM295.25 251.69C287.63 251.69 282.19 251.79 282.25 251.95C282.54 252.78 320.35 325.94 320.46 325.94C320.58 325.94 358.36 252.78 358.69 251.95C358.74 251.79 353.01 251.69 345.1 251.69C344.18 251.69 339.62 251.69 331.41 251.69C331.41 249.46 331.41 238.33 331.41 218.29C331.41 198.27 331.41 187.14 331.41 184.92C332.18 184.92 332.61 184.92 332.7 184.92C336.76 184.92 348.86 186.94 357.05 188.98C368.03 191.7 376.73 194.93 387.37 200.16C399.01 205.9 408.35 211.97 418.45 220.35C422.85 223.98 434.16 235.48 437.96 240.14C443.57 247.08 448.79 254.68 453.07 262.22C455.38 266.28 460.1 276.12 461.87 280.66C475.12 314.11 476.21 351.25 464.93 385.16C462.38 392.86 457.77 403.91 457.11 403.91C456.76 403.91 403.93 373.47 403.37 372.95C403.03 372.66 403.98 370.83 409.33 361.56C412.84 355.48 415.72 350.42 415.72 350.25C415.72 349.96 415.93 349.96 409.11 349.68C406.34 349.56 403.86 349.44 403.63 349.39C403.41 349.35 400.82 349.21 397.88 349.13C394.95 349.01 391.93 348.87 391.11 348.82C390.34 348.75 387.75 348.61 385.36 348.52C383 348.44 380.46 348.3 379.75 348.23C379.03 348.18 376.18 348.04 373.42 347.92C370.65 347.83 367.94 347.71 367.42 347.66C366.91 347.62 364.26 347.49 361.54 347.36C358.83 347.26 356.11 347.14 355.58 347.09C355.03 347.02 352.13 346.92 349.1 346.8C346.1 346.67 343.42 346.57 343.2 346.5C342.11 346.31 332.55 346.02 332.55 346.19C332.55 346.31 340.73 359.11 350.74 374.65C360.72 390.19 370.86 405.93 373.24 409.61C377.13 415.66 377.59 416.29 377.94 415.83C378.13 415.55 381.24 410.22 384.85 404C385.28 403.26 387.45 399.48 391.37 392.69C391.89 393 392.19 393.17 392.24 393.21C392.72 393.5 404.88 400.53 419.26 408.82C433.63 417.11 445.37 424.01 445.37 424.15C445.37 424.58 441.1 430.32 437.61 434.56C434.07 438.91 422.63 450.52 418.45 453.97C412.13 459.24 405.14 464.18 398.16 468.39C393.31 471.34 381.76 477.02 376.39 479.15C339.95 493.53 299.82 493.53 263.39 479.15C258.02 477.02 246.47 471.34 241.62 468.39C234.64 464.18 227.6 459.2 221.33 453.97C217.24 450.57 206.27 439.55 202.77 435.29C199.49 431.35 194.88 425.24 195.01 425.07C195.08 425.01 206.84 418.23 221.17 409.96C235.51 401.7 247.63 394.68 248.14 394.4C248.2 394.37 248.51 394.18 249.04 393.85C252.81 400.36 254.9 403.98 255.31 404.69C258.76 410.68 261.73 415.81 261.92 416.09C262.22 416.55 262.48 416.26 264.03 413.79C265.01 412.24 267.57 408.23 269.73 404.93C271.85 401.58 275.08 396.61 276.86 393.85C279.92 389.06 289.81 373.68 292.4 369.67C293.07 368.64 295.97 364.11 298.87 359.61C301.79 355.08 304.83 350.33 305.68 349.04C306.54 347.71 307.23 346.5 307.23 346.33C307.23 346.14 306.54 346.07 305 346.19C303.78 346.28 301.02 346.42 298.87 346.5C296.75 346.59 294.02 346.71 292.83 346.8C290.5 346.93 286.48 347.14 280.74 347.36C278.76 347.45 276.17 347.57 274.99 347.66C273.82 347.74 271.23 347.87 269.24 347.95C265.58 348.09 262.27 348.26 257.24 348.52C255.69 348.61 251.56 348.82 248.09 348.95C244.6 349.09 240.5 349.3 238.96 349.39C237.4 349.47 234.88 349.59 233.35 349.68C226.35 350.02 224.06 350.2 224.06 350.37C224.06 350.46 227.08 355.81 230.79 362.2C231.24 362.97 233.48 366.86 237.53 373.85C237.06 374.13 236.8 374.28 236.75 374.3C234.24 375.89 183.48 405.07 183.26 405.07C182.91 405.07 180.23 399.37 178.16 394.24C169.79 373.59 165.95 349.96 167.37 327.8C169.01 302.25 176.8 277.95 190.33 256.14C193.29 251.36 197.81 245.09 201.82 240.14C205.62 235.48 216.93 223.98 221.33 220.35C231.43 211.97 240.77 205.9 252.41 200.16C263.05 194.93 271.75 191.7 282.73 188.98C291.02 186.9 302.28 185 306.73 184.95C306.85 184.95 307.39 184.93 308.37 184.92C308.37 187.14 308.37 198.27 308.37 218.29L308.37 251.69C300.21 251.69 295.84 251.69 295.25 251.69Z" id="c2plWHCRGo"></path><path d="M218.64 74.79C218.5 74.98 216.53 75.91 214.23 76.83C169.65 94.82 129.5 124.74 99.53 162.33C68.45 201.29 48.09 247.73 40.84 296.15C40.44 298.91 39.96 301.5 39.8 301.87C39.23 303.28 38.08 314.33 37.54 323.9C37.16 330.51 37.16 347.14 37.54 354.13C37.89 360.42 38.42 366.29 39.32 373.8C39.35 374.15 39.58 375.91 39.96 379.08C39.27 379.72 38.87 380.09 38.8 380.15C36.42 382.4 33.22 385.33 30.05 388.24C28.23 389.91 25.85 392.1 24.73 393.14C22.31 395.4 21.88 395.78 9.71 407.06C4.44 411.89 0.09 415.98 0 416.12C-0.08 416.24 3.52 422.68 7.98 430.44C12.43 438.17 33.33 474.31 54.38 510.74C75.41 547.21 92.76 577.03 92.93 577.03C93.1 577.03 95.38 576.26 97.99 575.27C100.58 574.32 106.23 572.25 110.49 570.7C135.81 561.42 142.02 559.18 142.26 559.18C142.44 559.18 143.3 559.82 144.25 560.59C149.52 565 162.43 574.1 170.93 579.38C185.31 588.36 204.04 597.51 221.57 604.07C263.41 619.77 309.72 625.29 354.09 619.91C377.78 617.02 401.7 611.05 423.02 602.64C425.87 601.52 428.46 600.57 428.77 600.52C430.33 600.26 439.53 596.04 448.63 591.47C463.39 583.99 476.31 576 489.86 565.9C490.24 565.62 492.09 564.24 495.42 561.77C496.32 562.04 496.82 562.2 496.93 562.23C497.76 562.49 498.83 562.8 499.27 562.98C500.64 563.41 513.76 567.5 515.68 568.07C519.03 569.09 534.4 573.89 535.1 574.15C535.52 574.29 537.18 574.81 538.85 575.31C540.53 575.82 543.08 576.6 544.55 577.08C546.02 577.55 547.35 577.9 547.48 577.83C547.83 577.72 640.5 417.28 640.38 417.02C640.29 416.81 634.77 412.15 611.67 392.9C605.88 388.06 600.93 383.9 600.61 383.64C600.1 383.12 600.1 383.04 600.67 378.83C603.86 356.33 604.24 334.05 601.84 310.53C596.31 256.18 575.49 205.17 541.27 162.26C519.34 134.76 491.63 111.05 460.86 93.45C451.22 87.96 437.8 81.37 428.14 77.43C426.82 76.91 425.7 76.26 425.63 76.02C425.55 75.76 422.87 63.96 419.71 49.8C416.51 35.65 413.84 23.82 413.79 23.52C413.63 23.07 408.95 23.04 320.72 23.04C314.52 23.04 283.56 23.04 227.82 23.04C227.8 23.12 227.67 23.74 227.65 23.82C226.25 31.81 224.75 40.38 223.16 49.51C220.79 63.22 218.76 74.58 218.64 74.79ZM409.61 87.36C409.81 88.17 410.13 88.34 415.27 90.33C426.62 94.7 440.14 100.97 449.49 106.22C480 123.24 506.27 145.41 527.77 172.11C561.26 213.75 581.38 264.26 585.73 317.6C586.68 329.13 586.85 349.59 586.04 359.18C585.3 368.38 583.88 379.17 582.24 388.32C582.23 388.46 582.1 389.1 581.9 390.26C582.66 391 583.09 391.41 583.17 391.5C583.88 392.16 585.64 393.67 587.06 394.87C588.49 396.04 589.79 397.16 590 397.34C590.17 397.51 591.64 398.75 593.28 400.06C594.88 401.39 597.44 403.52 598.97 404.79C600.49 406.09 605.41 410.2 609.94 413.96C620.92 423.18 620.14 422.46 619.8 423.03C619.66 423.29 602.19 453.5 581.03 490.18C557.9 530.26 542.36 556.88 542.13 556.88C541.91 556.88 539.59 556.24 537.04 555.47C534.48 554.69 531.91 553.91 531.37 553.77C530.17 553.46 518.44 549.92 515.97 549.15C515.02 548.82 513.09 548.25 511.66 547.82C510.24 547.39 508.81 546.92 508.5 546.82C508.17 546.66 507.34 546.4 506.61 546.23C505.91 546.06 505.06 545.8 504.75 545.66C504.44 545.52 503.28 545.14 502.16 544.85C501.07 544.54 498.57 543.79 496.63 543.21C493.15 542.15 493.13 542.15 492.4 542.67C492.02 542.98 489.85 544.71 487.57 546.56C480.61 552.19 467.75 561.49 466.93 561.49C466.8 561.49 465.5 562.23 464.12 563.13C450.67 571.78 433.92 580.36 418.59 586.44C392.63 596.72 366.87 602.52 337.55 604.71C331.13 605.18 309.72 605.18 303.3 604.71C265.81 601.91 232.83 592.92 200.71 576.7C184.07 568.33 166.7 557.18 153.66 546.52C152.55 545.61 151.5 544.83 151.29 544.76C151.12 544.71 149.71 543.55 148.19 542.24C148 542.07 147.06 541.27 145.39 539.84C144.58 540.01 144.13 540.12 144.04 540.13C142.75 540.43 140.88 541.05 131.64 544.5C129.02 545.49 122.68 547.82 117.54 549.68C112.39 551.56 106.06 553.89 103.43 554.84C100.84 555.81 98.58 556.59 98.41 556.59C98.23 556.59 80.64 526.35 59.3 489.37C56.71 484.88 43.76 462.48 20.46 422.15C21.05 421.63 21.38 421.34 21.45 421.28C22 420.78 24.56 418.37 27.18 415.9C29.79 413.45 32.76 410.63 33.79 409.68C34.83 408.7 36.9 406.75 38.4 405.31C39.89 403.86 41.82 402.08 42.69 401.31C43.55 400.53 44.72 399.44 45.33 398.89C47.3 397.04 52.84 391.84 53.62 391.15C54.03 390.77 55.24 389.65 56.27 388.65C56.4 388.51 57.03 387.91 58.19 386.8C57.95 385.56 57.83 384.87 57.79 384.73C56.36 377.25 54.77 363.61 54.65 358.02C54.63 355.72 54.48 349.51 54.38 344.21C54.03 328.87 54.94 314.3 57.24 299.17C68.46 225.18 110.23 159.4 172.36 117.87C190.52 105.7 210.9 95.42 230.5 88.52C233.8 87.33 233.95 87.24 234.18 86.32C234.47 85.17 236.33 74.67 239.87 54.26C241.31 46.04 242.55 39.01 242.64 38.63C242.65 38.6 242.69 38.39 242.77 38.01C289.36 38.01 315.24 38.01 320.42 38.01C394.15 38.01 398.09 38.03 398.25 38.49C398.47 39.27 405 67.24 407.33 77.43C408.45 82.4 409.49 86.88 409.61 87.36Z" id="b62RwpGNc"></path></defs><g><g><use xlink:href="#c2plWHCRGo" opacity="1" fill="#ffffff" fill-opacity="1"></use><g><use xlink:href="#c2plWHCRGo" opacity="1" fill-opacity="0" stroke="#000000" stroke-width="1" stroke-opacity="0"></use></g></g><g><use xlink:href="#b62RwpGNc" opacity="1" fill="#ffffff" fill-opacity="1"></use><g><use xlink:href="#b62RwpGNc" opacity="1" fill-opacity="0" stroke="#000000" stroke-width="1" stroke-opacity="0"></use></g></g></g></svg>