<?xml version="1.0"?>
<svg xmlns="http://www.w3.org/2000/svg" xmlns:xlink="http://www.w3.org/1999/xlink" xmlns:svgjs="http://svgjs.com/svgjs" version="1.1" width="512" height="512" x="0" y="0" viewBox="0 0 612 612" style="enable-background:new 0 0 512 512" xml:space="preserve" class=""><g>
<g xmlns="http://www.w3.org/2000/svg">
	<g>
		<path d="M597.813,317.4l-123.576,9.042v-107.62c0-10.507-11.686-16.795-20.454-11.008l-76.698,50.621l-36.728-190.03    c-2.449-12.671-19.76-14.647-25.002-2.853l-76.227,171.509l-119.781-83.532c-9.877-6.887-23.059,1.974-20.411,13.719    l37.211,165.022L35.566,353.935c-10.612,2.286-14.074,15.696-5.894,22.832l71.499,62.372l-64.12,50.519h120.388l34.12-26.882    l-48.706-42.488l67.359-14.508l-23.834-105.702l78.758,54.924l49.742-111.92l23.834,123.319l51.815-34.198v70.468l84.977-6.218    l-71.505,70.468l36.173,22.737h127.332l-68.007-42.747l108.536-106.964C616.772,331.337,610.049,316.505,597.813,317.4z" fill="#ffffff" data-original="#000000" style="" class=""/>
		<path d="M16.486,554.284h573.642c9.105,0,16.486-7.381,16.486-16.487v-6.595c0-9.105-7.381-16.486-16.486-16.486H16.486    C7.381,514.717,0,522.098,0,531.203v6.595C0,546.903,7.381,554.284,16.486,554.284z" fill="#ffffff" data-original="#000000" style="" class=""/>
	</g>
</g>
<g xmlns="http://www.w3.org/2000/svg">
</g>
<g xmlns="http://www.w3.org/2000/svg">
</g>
<g xmlns="http://www.w3.org/2000/svg">
</g>
<g xmlns="http://www.w3.org/2000/svg">
</g>
<g xmlns="http://www.w3.org/2000/svg">
</g>
<g xmlns="http://www.w3.org/2000/svg">
</g>
<g xmlns="http://www.w3.org/2000/svg">
</g>
<g xmlns="http://www.w3.org/2000/svg">
</g>
<g xmlns="http://www.w3.org/2000/svg">
</g>
<g xmlns="http://www.w3.org/2000/svg">
</g>
<g xmlns="http://www.w3.org/2000/svg">
</g>
<g xmlns="http://www.w3.org/2000/svg">
</g>
<g xmlns="http://www.w3.org/2000/svg">
</g>
<g xmlns="http://www.w3.org/2000/svg">
</g>
<g xmlns="http://www.w3.org/2000/svg">
</g>
</g></svg>
